<?xml version="1.0" encoding="UTF-8" standalone="no"?>
<!-- Created with Inkscape (http://www.inkscape.org/) -->

<svg
   width="799.99994"
   height="300"
   viewBox="0 0 266.66665 99.999994"
   version="1.1"
   id="svg1"
   inkscape:version="1.4.2 (ebf0e940, 2025-05-08)"
   sodipodi:docname="logo.svg"
   xml:space="preserve"
   inkscape:export-filename="export/logo_black.svg"
   inkscape:export-xdpi="96"
   inkscape:export-ydpi="96"
   xmlns:inkscape="http://www.inkscape.org/namespaces/inkscape"
   xmlns:sodipodi="http://sodipodi.sourceforge.net/DTD/sodipodi-0.dtd"
   xmlns:xlink="http://www.w3.org/1999/xlink"
   xmlns="http://www.w3.org/2000/svg"
   xmlns:svg="http://www.w3.org/2000/svg"><sodipodi:namedview
     id="namedview1"
     pagecolor="#ffffff"
     bordercolor="#000000"
     borderopacity="0.25"
     inkscape:showpageshadow="2"
     inkscape:pageopacity="0.0"
     inkscape:pagecheckerboard="true"
     inkscape:deskcolor="#d1d1d1"
     inkscape:document-units="mm"
     inkscape:zoom="0.53343687"
     inkscape:cx="452.72461"
     inkscape:cy="445.22607"
     inkscape:window-width="1512"
     inkscape:window-height="916"
     inkscape:window-x="0"
     inkscape:window-y="38"
     inkscape:window-maximized="1"
     inkscape:current-layer="g50"><inkscape:page
       x="0"
       y="0"
       width="266.66666"
       height="99.999992"
       id="page2"
       margin="0"
       bleed="0" /></sodipodi:namedview><defs
     id="defs1"><linearGradient
       id="swatch55"
       inkscape:swatch="solid"
       inkscape:label="main v2"><stop
         style="stop-color:#c66f54;stop-opacity:1;"
         offset="0"
         id="stop55" /></linearGradient><linearGradient
       id="swatch53"
       inkscape:swatch="solid"
       inkscape:label="black"><stop
         style="stop-color:#000000;stop-opacity:1;"
         offset="0"
         id="stop53" /></linearGradient><linearGradient
       inkscape:collect="always"
       xlink:href="#swatch55"
       id="linearGradient10"
       x1="46.177734"
       y1="166.71126"
       x2="287.15561"
       y2="166.71126"
       gradientUnits="userSpaceOnUse" /><linearGradient
       inkscape:collect="always"
       xlink:href="#swatch55"
       id="linearGradient2"
       gradientUnits="userSpaceOnUse"
       x1="46.177734"
       y1="166.71126"
       x2="287.15561"
       y2="166.71126" /><linearGradient
       inkscape:collect="always"
       xlink:href="#swatch55"
       id="linearGradient3"
       gradientUnits="userSpaceOnUse"
       x1="46.177734"
       y1="166.71126"
       x2="287.15561"
       y2="166.71126" /><linearGradient
       inkscape:collect="always"
       xlink:href="#swatch55"
       id="linearGradient4"
       gradientUnits="userSpaceOnUse"
       x1="46.177734"
       y1="166.71126"
       x2="287.15561"
       y2="166.71126" /><linearGradient
       inkscape:collect="always"
       xlink:href="#swatch55"
       id="linearGradient5"
       gradientUnits="userSpaceOnUse"
       x1="46.177734"
       y1="166.71126"
       x2="287.15561"
       y2="166.71126" /><linearGradient
       inkscape:collect="always"
       xlink:href="#swatch55"
       id="linearGradient9"
       gradientUnits="userSpaceOnUse"
       gradientTransform="matrix(1.0623027,0,0,1.0623027,-20.889761,-22.361668)"
       x1="223.0199"
       y1="219.5524"
       x2="289.77792"
       y2="219.5524" /></defs><g
     inkscape:groupmode="layer"
     id="g50"
     inkscape:label="logo rectangular"
     style="display:inline"
     transform="translate(-33.554895,-127.95308)"><g
       id="g286"
       inkscape:label="LUMA"
       style="display:inline;fill:url(#linearGradient10)"><path
         id="path43"
         style="font-size:88.8889px;line-height:0;font-family:Classico;-inkscape-font-specification:Classico;letter-spacing:10.6667px;display:inline;fill:url(#linearGradient2);stroke-width:0.666667"
         inkscape:label="L"
         d="m 46.177734,135.6888 v 62.13346 h 32.888671 l 1.333334,-3.28906 h -0.177735 c -8.88889,1.42222 -22.488975,2.8444 -27.644531,2.8444 h -2.04427 v -61.6888 z" /><path
         id="path44"
         style="font-size:88.8889px;line-height:0;font-family:Classico;-inkscape-font-specification:Classico;letter-spacing:10.6667px;display:inline;fill:url(#linearGradient3);stroke-width:0.666667"
         inkscape:label="U"
         d="m 135.33333,135.51107 v 41.77799 c 0,12.62223 -7.1115,19.28906 -18.40039,19.28906 -11.91112,0 -17.955076,-6.75567 -17.955076,-19.46679 V 135.6888 h -4.355469 v 41.86654 c 0,13.77778 7.199435,21.24479 20.977215,21.24479 13.95556,0 20.88932,-7.73324 20.88932,-21.6888 v -41.60026 z" /><path
         id="path45"
         style="font-size:88.8889px;line-height:0;font-family:Classico;-inkscape-font-specification:Classico;letter-spacing:10.6667px;display:inline;fill:url(#linearGradient4);stroke-width:0.666667"
         inkscape:label="M"
         d="m 162.88867,135.6888 v 0.17774 l 0.97786,2.31119 -6.31119,59.4668 h 0.88932 l 6.22201,-57.77799 23.82226,54.04492 h 0.35547 l 21.77799,-53.86719 5.42188,57.77799 h 4.53385 l -5.77799,-62.13346 h -3.4668 l -20.88867,51.55599 -22.8444,-51.55599 z" /><path
         id="path46"
         style="font-size:88.8889px;line-height:0;font-family:Classico;-inkscape-font-specification:Classico;letter-spacing:10.6667px;display:inline;fill:url(#linearGradient5);stroke-width:0.666667"
         inkscape:label="A"
         d="m 262.26692,134.62239 -13.95572,36.08855 c -3.55555,9.06667 -7.11112,18.57798 -10.66667,27.11132 h 1.77799 c 8.26667,-20.71112 4.53295,-10.57759 8.26628,-20.71093 0.74389,-1.93643 2.22266,-5.86654 2.22266,-5.86654 l 11.11067,-28.71159 13.06706,33.86654 0.35547,0.71159 7.91081,20.71093 h 4.80013 l -24.53321,-63.19987 z" /></g><text
       xml:space="preserve"
       style="font-style:normal;font-variant:normal;font-weight:normal;font-stretch:normal;font-size:25.7778px;line-height:0;font-family:Classico;-inkscape-font-specification:Classico;text-align:start;letter-spacing:4.7px;writing-mode:lr-tb;direction:ltr;text-anchor:start;display:inline;fill:url(#linearGradient9);stroke:none;stroke-width:1.17489;stroke-linecap:butt;stroke-linejoin:miter;stroke-dasharray:none;stroke-opacity:1"
       x="287.91"
       y="216.77354"
       id="text297"
       inkscape:label="goa"><tspan
         sodipodi:role="line"
         id="tspan297"
         style="font-style:normal;font-variant:normal;font-weight:normal;font-stretch:normal;font-size:25.7778px;font-family:Lora;-inkscape-font-specification:Lora;text-align:end;letter-spacing:4.7px;direction:ltr;text-anchor:end;fill:url(#linearGradient9);fill-opacity:1;stroke-width:1.17489"
         x="292.61002"
         y="216.77354">goa</tspan></text></g><g
     inkscape:groupmode="layer"
     id="g5"
     inkscape:label="logo rectangular white"
     style="display:none"
     transform="translate(-33.554895,-127.95308)"><g
       id="g4"
       inkscape:label="LUMA"
       style="display:inline"><path
         id="path1"
         style="font-size:88.8889px;line-height:0;font-family:Classico;-inkscape-font-specification:Classico;letter-spacing:10.6667px;display:inline;fill:#ffffff;stroke-width:0.666667"
         inkscape:label="L"
         d="m 46.177734,135.6888 v 62.13346 h 32.888671 l 1.333334,-3.28906 h -0.177735 c -8.88889,1.42222 -22.488975,2.8444 -27.644531,2.8444 h -2.04427 v -61.6888 z" /><path
         id="path2"
         style="font-size:88.8889px;line-height:0;font-family:Classico;-inkscape-font-specification:Classico;letter-spacing:10.6667px;display:inline;fill:#ffffff;stroke-width:0.666667"
         inkscape:label="U"
         d="m 135.33333,135.51107 v 41.77799 c 0,12.62223 -7.1115,19.28906 -18.40039,19.28906 -11.91112,0 -17.955076,-6.75567 -17.955076,-19.46679 V 135.6888 h -4.355469 v 41.86654 c 0,13.77778 7.199435,21.24479 20.977215,21.24479 13.95556,0 20.88932,-7.73324 20.88932,-21.6888 v -41.60026 z" /><path
         id="path3"
         style="font-size:88.8889px;line-height:0;font-family:Classico;-inkscape-font-specification:Classico;letter-spacing:10.6667px;display:inline;fill:#ffffff;stroke-width:0.666667"
         inkscape:label="M"
         d="m 162.88867,135.6888 v 0.17774 l 0.97786,2.31119 -6.31119,59.4668 h 0.88932 l 6.22201,-57.77799 23.82226,54.04492 h 0.35547 l 21.77799,-53.86719 5.42188,57.77799 h 4.53385 l -5.77799,-62.13346 h -3.4668 l -20.88867,51.55599 -22.8444,-51.55599 z" /><path
         id="path4"
         style="font-size:88.8889px;line-height:0;font-family:Classico;-inkscape-font-specification:Classico;letter-spacing:10.6667px;display:inline;fill:#ffffff;stroke-width:0.666667"
         inkscape:label="A"
         d="m 262.26692,134.62239 -13.95572,36.08855 c -3.55555,9.06667 -7.11112,18.57798 -10.66667,27.11132 h 1.77799 c 8.26667,-20.71112 4.53295,-10.57759 8.26628,-20.71093 0.74389,-1.93643 2.22266,-5.86654 2.22266,-5.86654 l 11.11067,-28.71159 13.06706,33.86654 0.35547,0.71159 7.91081,20.71093 h 4.80013 l -24.53321,-63.19987 z" /></g><text
       xml:space="preserve"
       style="font-style:normal;font-variant:normal;font-weight:normal;font-stretch:normal;font-size:25.7778px;line-height:0;font-family:Classico;-inkscape-font-specification:Classico;text-align:start;letter-spacing:4.7px;writing-mode:lr-tb;direction:ltr;text-anchor:start;display:inline;fill:#ffffff;stroke:none;stroke-width:1.17489;stroke-linecap:butt;stroke-linejoin:miter;stroke-dasharray:none;stroke-opacity:1"
       x="287.91"
       y="216.77354"
       id="text5"
       inkscape:label="goa"><tspan
         sodipodi:role="line"
         id="tspan5"
         style="font-style:normal;font-variant:normal;font-weight:normal;font-stretch:normal;font-size:25.7778px;font-family:Lora;-inkscape-font-specification:Lora;text-align:end;letter-spacing:4.7px;direction:ltr;text-anchor:end;fill:#ffffff;fill-opacity:1;stroke-width:1.17489"
         x="292.61002"
         y="216.77354">goa</tspan></text></g><g
     inkscape:groupmode="layer"
     id="g10"
     inkscape:label="logo rectangular black"
     style="display:none"
     transform="translate(-33.554895,-127.95308)"><g
       id="g9"
       inkscape:label="LUMA"
       style="display:inline"><path
         id="path6"
         style="font-size:88.8889px;line-height:0;font-family:Classico;-inkscape-font-specification:Classico;letter-spacing:10.6667px;display:inline;fill:#000000;stroke-width:0.666667"
         inkscape:label="L"
         d="m 46.177734,135.6888 v 62.13346 h 32.888671 l 1.333334,-3.28906 h -0.177735 c -8.88889,1.42222 -22.488975,2.8444 -27.644531,2.8444 h -2.04427 v -61.6888 z" /><path
         id="path7"
         style="font-size:88.8889px;line-height:0;font-family:Classico;-inkscape-font-specification:Classico;letter-spacing:10.6667px;display:inline;fill:#000000;stroke-width:0.666667"
         inkscape:label="U"
         d="m 135.33333,135.51107 v 41.77799 c 0,12.62223 -7.1115,19.28906 -18.40039,19.28906 -11.91112,0 -17.955076,-6.75567 -17.955076,-19.46679 V 135.6888 h -4.355469 v 41.86654 c 0,13.77778 7.199435,21.24479 20.977215,21.24479 13.95556,0 20.88932,-7.73324 20.88932,-21.6888 v -41.60026 z" /><path
         id="path8"
         style="font-size:88.8889px;line-height:0;font-family:Classico;-inkscape-font-specification:Classico;letter-spacing:10.6667px;display:inline;fill:#000000;stroke-width:0.666667"
         inkscape:label="M"
         d="m 162.88867,135.6888 v 0.17774 l 0.97786,2.31119 -6.31119,59.4668 h 0.88932 l 6.22201,-57.77799 23.82226,54.04492 h 0.35547 l 21.77799,-53.86719 5.42188,57.77799 h 4.53385 l -5.77799,-62.13346 h -3.4668 l -20.88867,51.55599 -22.8444,-51.55599 z" /><path
         id="path9"
         style="font-size:88.8889px;line-height:0;font-family:Classico;-inkscape-font-specification:Classico;letter-spacing:10.6667px;display:inline;fill:#000000;stroke-width:0.666667"
         inkscape:label="A"
         d="m 262.26692,134.62239 -13.95572,36.08855 c -3.55555,9.06667 -7.11112,18.57798 -10.66667,27.11132 h 1.77799 c 8.26667,-20.71112 4.53295,-10.57759 8.26628,-20.71093 0.74389,-1.93643 2.22266,-5.86654 2.22266,-5.86654 l 11.11067,-28.71159 13.06706,33.86654 0.35547,0.71159 7.91081,20.71093 h 4.80013 l -24.53321,-63.19987 z" /></g><text
       xml:space="preserve"
       style="font-style:normal;font-variant:normal;font-weight:normal;font-stretch:normal;font-size:25.7778px;line-height:0;font-family:Classico;-inkscape-font-specification:Classico;text-align:start;letter-spacing:4.7px;writing-mode:lr-tb;direction:ltr;text-anchor:start;display:inline;fill:#000000;stroke:none;stroke-width:1.17489;stroke-linecap:butt;stroke-linejoin:miter;stroke-dasharray:none;stroke-opacity:1"
       x="287.91"
       y="216.77354"
       id="text9"
       inkscape:label="goa"><tspan
         sodipodi:role="line"
         id="tspan9"
         style="font-style:normal;font-variant:normal;font-weight:normal;font-stretch:normal;font-size:25.7778px;font-family:Lora;-inkscape-font-specification:Lora;text-align:end;letter-spacing:4.7px;direction:ltr;text-anchor:end;fill:#000000;fill-opacity:1;stroke-width:1.17489"
         x="292.61002"
         y="216.77354">goa</tspan></text></g></svg>
