<?xml version="1.0" encoding="UTF-8" standalone="no"?>
<!-- Created with Inkscape (http://www.inkscape.org/) -->

<svg
   width="1024"
   height="1024"
   viewBox="0 0 1024 1024"
   version="1.1"
   id="svg1"
   xml:space="preserve"
   xmlns="http://www.w3.org/2000/svg"
   xmlns:svg="http://www.w3.org/2000/svg"><defs
     id="defs1" /><g
     id="layer1"
     style="display:inline"><path
       style="display:inline;fill:#000000;stroke:none;stroke-width:1.46427"
       d="m 467.56364,347.84746 c 11.54328,-12.32761 18.52511,-30.10475 28.44826,-43.92809 21.83267,-30.41371 50.07133,-60.40567 82.83623,-79.07055 -37.13796,37.13796 -80.19557,82.70468 -95.17752,134.7128 21.77637,0 43.23733,0.98613 64.42786,-5.01993 51.08661,-14.4796 84.81423,-59.03006 100.06975,-107.72883 6.50574,-20.76762 9.09216,-41.49995 11.63283,-62.96359 0.65679,-5.5484 4.05158,-19.07876 -2.34781,-22.34137 -4.98704,-2.54255 -13.13489,-1.08695 -18.57006,-1.08695 -16.73497,0 -33.32106,1.17452 -49.78516,4.39388 -71.00769,13.88456 -130.31999,60.83923 -130.31999,137.64027 0,15.51765 1.4275,31.42871 8.78561,45.39236 m -43.92808,48.3209 c -13.42023,-46.58467 -59.62134,-85.74012 -93.71326,-117.14157 31.07825,13.39202 57.21118,40.51559 78.66835,65.89213 9.40442,11.12224 18.4456,31.11887 31.15187,38.07101 2.51797,-19.49729 5.50608,-37.43004 2.02807,-57.10651 -11.05659,-62.55231 -65.71226,-97.36848 -125.02671,-105.82395 -16.68127,-2.37793 -34.40337,-3.8867 -51.24944,-2.28346 -4.43302,0.42192 -13.12524,0.0221 -16.66624,2.94213 -3.84908,3.17404 -0.88001,13.07752 -0.28359,17.3091 2.44656,17.35844 6.37928,34.33089 10.92442,51.24944 13.05439,48.59277 49.40977,94.0274 99.73866,105.93352 22.29424,5.27411 42.0511,2.72433 64.42787,0.95816 m 158.14111,-174.24808 -2.92854,2.92854 2.92854,-2.92854 m -256.24718,52.7137 4.39281,2.92854 v 1.46427 l -4.39281,-4.39281 m 140.56988,84.92764 -16.10696,48.3209 -7.32135,-14.6427 -13.17843,5.85708 c 6.78338,23.54673 16.10697,39.02997 16.10697,64.42786 h 23.42831 c -4.53146,-35.85583 5.13899,-64.96302 10.24989,-99.57033 l -13.17843,-4.39281 M 190.81669,482.56026 c 0,107.82491 18.54244,213.38047 84.74233,301.63954 21.0092,28.00988 51.9397,63.57337 85.11294,77.48081 9.56196,4.00878 23.46501,1.58975 33.6782,1.58975 h 71.74921 57.10652 c 9.20996,0 20.50245,1.73666 29.28539,-1.42021 36.80103,-13.22767 71.35428,-55.71419 93.09186,-86.43597 7.96813,-11.2614 14.89946,-31.97745 25.82581,-40.11602 9.41228,-7.01087 33.21301,-4.33651 45.08052,-7.28971 32.7399,-8.14715 64.0442,-24.27716 85.71171,-50.70033 30.90999,-37.69422 50.26983,-113.24084 0.6802,-144.60681 -12.7682,-8.07601 -26.3447,-9.94548 -40.99955,-11.65196 -12.86365,-1.49796 -27.20283,1.97199 -39.53528,5.439 0.20566,-9.96255 6.59226,-33.20552 -0.0407,-41.58029 -4.59067,-5.79621 -25.33488,-2.3478 -32.17326,-2.3478 h -95.17753 -404.1384 m 500.7802,210.85482 c 2.67419,-30.43749 18.23742,-61.56028 23.31079,-92.24898 1.41672,-8.56952 0.46607,-27.95027 7.89869,-33.54826 15.9813,-12.0366 53.19078,-8.72063 63.63925,8.6613 7.65264,12.73077 5.31271,30.29763 1.56141,43.92247 -12.66498,45.99919 -54.67855,62.93249 -96.41014,73.21347 M 442.67102,625.01813 c 101.74162,-13.22124 154.79173,122.24264 68.82067,180.04858 -12.89789,8.67247 -28.6049,13.32589 -43.92809,15.31611 -101.46712,13.17906 -149.67222,-129.1149 -62.96359,-181.93094 11.53099,-7.02373 24.67045,-11.69234 38.07101,-13.43375 m 39.53645,31.41289 c -18.44173,7.07343 -21.71783,37.85374 -13.30275,53.06958 3.32633,6.01446 12.84874,9.71777 14.16929,16.28098 3.12642,15.53828 -3.7706,35.16418 -3.79625,51.09687 -0.0117,7.68581 -1.12054,28.0365 12.90165,22.31885 11.62442,-4.7401 5.38037,-31.92043 4.2515,-41.35435 -1.15147,-9.62304 -4.91054,-22.49028 -3.26065,-32.06022 1.15997,-6.72827 11.71953,-11.04289 14.9127,-17.72602 7.80941,-16.3447 1.09909,-61.97202 -25.87549,-51.62569 m -68.82185,0.37732 c -3.6948,12.50009 -6.08506,38.91325 -1.2473,51.24944 2.64822,6.75295 11.028,10.61121 12.3649,17.62888 2.48714,13.05545 -2.2901,30.65591 -3.54766,43.87044 -0.80836,8.49436 -3.80468,31.27383 9.98437,30.25597 12.53217,-0.92518 9.36086,-23.24125 8.55396,-31.72024 -1.22444,-12.86661 -7.14751,-31.18723 -3.67872,-43.77552 1.66271,-6.03395 8.65428,-8.80966 11.03171,-14.8009 5.41125,-13.63645 3.08705,-39.00164 -1.24732,-52.70807 h -1.46427 l -1.46427,40.99955 h -4.39281 l -1.46427,-40.99955 c -8.91824,5.78166 -4.39281,31.09857 -4.39281,40.99955 h -4.39281 l -1.46427,-40.99955 c -8.91824,5.78166 -4.39281,31.09857 -4.39281,40.99955 h -4.39281 l -1.46427,-40.99955 z"
       id="path2" /></g></svg>
