<?xml version="1.0" encoding="UTF-8" standalone="no"?>
<!-- Created with Inkscape (http://www.inkscape.org/) -->

<svg
   width="1024"
   height="1024"
   viewBox="0 0 1024 1024"
   version="1.1"
   id="svg1"
   xml:space="preserve"
   xmlns="http://www.w3.org/2000/svg"
   xmlns:svg="http://www.w3.org/2000/svg"><defs
     id="defs1" /><g
     id="layer3"
     style="display:inline"><path
       style="display:inline;fill:#000000;stroke:none;stroke-width:1.46427"
       d="m 496.06137,66.612725 h -1.46427 c -6.2884,-12.745149 -15.067,-6.384201 -12.62366,5.857078 2.5425,12.738004 13.27884,20.222896 17.01647,32.213927 -14.06773,-9.128355 -19.4102,-1.58967 -13.17843,13.17843 -21.10402,-4.81018 -19.81024,11.12725 -4.38719,21.16076 4.29219,2.79225 13.36259,4.04632 15.92962,8.58444 2.497,4.41426 0.17508,13.52465 0.17173,18.5757 -13.45272,-13.3309 -26.16368,-13.76936 -17.57124,7.32134 -8.92526,0.68074 -12.5098,7.10086 -5.52265,14.16134 6.18244,6.24727 15.98354,9.87184 24.55816,10.73125 v 24.89258 h -1.46427 c -1.95041,-4.98884 -12.15356,-17.80638 -16.13182,-7.10329 -1.7827,4.79614 0.55947,11.09249 1.48912,15.88891 -6.71889,-1.22378 -16.79513,-1.24585 -13.13665,8.78677 4.95844,13.59749 27.23208,14.38076 30.24239,25.05068 5.22871,18.53297 1.14745,42.15934 1.98741,61.34007 2.06667,47.19284 4.33516,94.77097 4.33516,142.03415 h -10.24988 c -1.01115,-22.12671 -12.4366,-45.34562 -20.03317,-65.89213 -2.98328,-8.06895 -10.13241,-20.48816 -7.93257,-29.28539 2.13708,-8.54602 11.34234,-14.9884 16.25158,-21.96405 l -13.17843,2.92854 8.78562,-20.49977 -14.64269,10.24989 c 4.33185,-23.25092 6.47374,-47.24818 0,-70.28494 h -2.92854 l -11.71416,27.82112 c 4.13483,-32.54639 5.73513,-63.5463 -13.17843,-92.24899 h -1.46427 l -4.39281,10.24989 h -1.46426 c 0,-26.03815 -10.00668,-41.11297 -23.42832,-62.96359 l -11.71415,30.74966 h -1.46427 c 1.26187,-29.38468 8.17958,-47.52022 -10.47248,-73.21348 -4.1086,-5.65966 -10.49642,-17.357729 -18.79031,-16.771362 -8.99104,0.635698 -13.89819,16.995502 -15.90248,24.092712 -7.84771,27.78885 -7.78139,49.55011 12.95133,70.28494 l -17.57123,-7.32135 c 0.0505,18.35645 2.25758,47.46534 13.33661,62.71505 8.16301,11.23592 21.66197,17.74085 32.05575,26.6054 L 359.8843,261.36058 c 8.99711,26.59484 20.81668,43.4705 46.85662,55.64224 v 1.46427 l -24.89258,-8.78561 c 5.61801,19.46395 23.73623,36.82971 42.46382,43.92808 v 1.46427 l -23.42832,-2.92854 v 1.46427 l 30.74966,11.71416 v 1.46427 l -23.42831,2.92854 42.46382,10.24989 c -7.00546,7.17817 -11.24679,13.22551 -11.71416,23.42831 6.80782,-2.36702 8.29693,-14.56137 16.05387,-14.56137 6.65545,0 11.24723,12.55881 13.43377,17.48991 9.03957,20.38644 13.029,42.6665 21.7618,62.96359 -14.53644,0 -35.99043,-4.15008 -49.72078,0.27455 -8.51691,2.74461 -9.66932,15.31692 -2.6585,20.43309 6.2412,4.55458 17.17014,4.04579 24.55816,5.02781 24.0649,3.19853 48.95587,2.36853 73.21348,2.08004 13.27342,-0.15784 34.80554,0.95173 46.77637,-5.22548 6.70699,-3.46094 10.35471,-14.49229 3.83807,-20.0388 -9.07115,-7.72084 -37.60297,-2.55121 -49.15017,-2.55121 3.82717,-28.39731 19.90955,-58.84855 36.19776,-81.9991 5.61579,-7.9818 14.20058,-20.67039 23.83612,-24.00681 13.17593,-4.56236 17.77421,24.81106 20.2784,32.76303 0.79998,2.54021 4.45823,8.82458 7.08631,3.87087 2.17843,-4.10619 -0.85521,-11.48974 -2.062,-15.55562 -3.69106,-12.4361 -10.69282,-36.25311 -28.23008,-29.27298 -11.13003,4.4299 -19.30398,15.56841 -26.12967,24.88017 -17.60055,24.01093 -34.28012,56.57787 -38.29819,86.3919 h -1.46427 c 4.72178,-59.73843 26.8955,-127.48503 52.11937,-181.56263 6.935,-14.86801 44.71671,-5.41631 44.71671,-27.66973 0,-12.45183 -24.64359,-5.36465 -30.94395,-4.551 8.7597,-15.55107 27.22598,-8.33876 39.31838,-20.77549 15.52434,-15.96638 -14.4527,-15.14014 -23.21142,-11.43844 l 5.85708,-14.64269 c 9.51061,4.01315 21.04941,4.04497 30.74287,0.27115 9.52276,-3.70733 10.22423,-11.46651 1.47106,-16.37812 23.68303,-13.97098 13.04902,-24.95685 -10.24988,-17.57123 8.88759,-13.88412 22.74318,-4.92002 35.07811,-14.12864 6.36552,-4.75217 8.51259,-12.77339 -1.40671,-13.60554 -8.61572,-0.72275 -15.68253,2.59599 -23.42152,5.77013 0.69228,-8.7707 2.92443,-17.7557 -0.38645,-26.32862 -3.44225,-8.91297 -10.9914,-6.19231 -14.03934,1.44283 -6.20535,15.54481 8.28147,32.04466 -4.60971,43.9213 -6.3e-4,-5.43373 0.66725,-28.15395 -9.77872,-25.25643 -7.69841,2.13546 -7.30115,19.03095 -7.79252,25.25643 -18.7572,-16.61648 -16.46678,10.40887 -9.99454,21.96404 2.06841,3.69276 5.80085,7.44628 6.54962,11.71416 0.85832,4.8923 -3.47764,10.31699 -5.34069,14.64269 h -1.46427 c -0.48413,-11.10812 -15.20789,-38.28327 -19.81394,-14.64154 -3.55862,18.2653 11.10893,30.6938 5.17124,48.31974 -2.56962,-5.79711 -9.11675,-31.48009 -19.74843,-24.78749 -16.84616,10.60461 8.31168,39.16832 7.41742,49.68008 -1.17461,13.80697 -11.89397,29.34123 -16.45051,42.46381 -10.88014,31.33425 -19.83681,63.0023 -27.77706,95.17753 -3.01612,12.22179 -4.06016,51.66411 -16.6549,55.64224 0,-46.61426 -0.9448,-93.95537 -2.98619,-140.56988 -0.66117,-15.09832 -0.8018,-30.26535 -1.46427,-45.39236 -0.25989,-5.93465 -2.88809,-13.12132 -0.52309,-18.87732 4.30201,-10.47046 21.90336,-9.15642 26.81104,-20.6568 3.43108,-8.04026 -6.30323,-8.72431 -11.5876,-8.78677 5.6921,-20.25552 -2.81138,-25.53213 -17.57124,-10.24989 v -26.35685 c 9.05449,-1.22529 19.22676,-4.60623 26.02242,-11.02493 10.14952,-9.58648 -1.15316,-13.83664 -9.91545,-13.86766 10.61846,-18.86668 -3.09182,-21.48626 -16.10697,-8.78561 0,-5.38386 -1.53823,-13.73951 1.50494,-18.45924 2.45124,-3.8017 46.16578,-27.64962 17.53057,-29.86166 3.5283,-26.332106 -7.72925,-15.29984 -20.49978,-2.92854 0.001,-18.600717 14.18564,-23.210062 20.09412,-39.535277 4.93986,-13.649057 -7.63585,-10.491287 -14.23704,-4.392809 0,-6.030462 2.20159,-17.898162 -2.54554,-22.516542 -8.90654,-8.664962 -11.90957,15.23041 -12.09715,19.588003 m 175.70555,44.969795 c -8.04597,1.85698 -15.40414,10.7308 -18.4898,17.9938 -2.18568,5.14442 -2.15288,12.54432 5.3464,11.60225 9.19415,-1.15495 17.47392,-10.64669 20.4727,-18.9236 2.06449,-5.69826 -0.17794,-12.32296 -7.3293,-10.67245 m -306.02555,19.45807 c 10.6093,44.05132 20.90865,84.37683 39.98723,125.92718 17.6998,38.54754 45.03398,76.60594 53.72603,118.60584 h -1.46427 c -34.64784,-52.36105 -65.18369,-118.22566 -82.42393,-178.64089 -5.00398,-17.53549 -17.27246,-48.14403 -9.82506,-65.89213 m 162.53393,336.782 -1.46427,1.46427 1.46427,-1.46427 m -80.53483,33.6782 c 4.91987,23.84899 9.97087,53.76132 -6.42879,74.67775 -21.21056,27.05225 -69.77288,39.94782 -77.03458,77.60629 95.72846,21.94581 197.86166,25.78273 292.85392,-4.39281 -11.82802,-37.05611 -56.97318,-46.02816 -78.25477,-74.67775 -16.19643,-21.8039 -8.65344,-47.5026 -6.67286,-71.74921 l -124.46292,-1.46427 m 26.35685,36.60674 -1.46427,16.10697 h -2.92854 l 1.46427,-16.10697 h 2.92854 m 14.6427,13.17843 v 13.17842 c -7.75883,-2.58392 -4.94509,-8.811 0,-13.17842 m 177.17662,45.39236 c 4.06026,10.3472 30.57288,13.92718 40.99955,16.10696 l -27.82112,39.53528 c 14.33025,-6.38697 25.75591,-29.92261 40.99954,-32.22297 7.97162,-1.20302 20.14362,8.51046 26.35686,12.7061 25.42371,17.16836 49.60248,47.57071 29.94637,78.08765 -21.7777,33.81091 -64.61911,48.6791 -100.22569,62.50261 -6.44916,2.50376 -11.12627,7.70654 -17.5825,10.00474 -21.57822,7.68089 -47.64354,9.85621 -70.2793,12.83264 -79.01452,10.38984 -152.08809,5.39629 -229.89032,-10.66224 l 10.24988,43.92809 c -36.59937,0.75555 -84.45746,12.3208 -115.67729,31.6558 -4.57384,2.83264 -8.7631,6.12635 -12.53442,9.97078 -25.20574,25.69452 3.64021,50.17268 27.17711,61.94109 88.58696,44.29353 203.44021,45.78783 300.17527,45.78783 29.37324,0 58.62181,-3.29498 87.85617,-5.85708 6.04726,-0.52998 25.88514,-0.57199 29.02781,-6.40618 4.52956,-8.4091 -20.38108,-3.18808 -23.17073,-2.77715 -28.52913,4.20272 -57.58045,6.25479 -86.39191,6.25479 -91.71194,0 -187.78225,-2.05752 -275.28268,-33.22741 -10.01837,-3.56881 -19.77872,-7.77259 -29.28539,-12.52655 -20.00345,-10.00295 -45.43942,-29.96632 -20.47832,-50.12969 4.4676,-3.60893 9.52574,-6.54561 14.62124,-9.16412 32.05579,-16.47321 72.54662,-25.37465 108.35595,-28.20076 4.90924,32.75105 31.82195,54.93263 52.4968,77.73729 5.90341,6.51165 3.26391,16.23361 11.99545,20.41283 23.32157,11.16246 59.64298,7.2789 84.86325,7.27729 16.07935,-10e-4 32.40259,-1.71577 48.3209,-3.99618 5.92392,-0.84868 13.985,-1.10428 18.54851,-5.5408 5.04003,-4.89964 2.74756,-21.38232 4.03694,-28.53403 3.70321,-20.54017 8.46672,-40.91581 11.91979,-61.49932 1.9787,-11.79487 2.34503,-23.52789 12.37399,-31.64223 12.26389,-9.92252 28.63458,-10.68111 42.0401,-17.70574 4.27226,-2.23859 6.16158,-6.90773 10.71534,-9.0691 40.3626,-19.15777 91.9217,-28.60975 115.13839,-71.90293 21.50458,-40.10065 -18.72923,-92.20144 -59.56049,-99.57033 10.54169,-14.96516 27.58018,-24.08574 37.7061,-39.53528 4.54618,-6.93616 5.47681,-21.27346 -6.95761,-15.41549 -12.85435,6.05575 -22.236,22.15485 -30.74849,32.98673 -3.49426,4.44643 -7.48419,12.10899 -13.23607,13.84388 -14.31479,4.31775 -30.96192,-12.62441 -46.79898,-7.9868 m 93.71325,-29.2854 -14.64269,14.6427 -1.46427,-1.46427 c 2.54736,-7.49259 7.62279,-14.37727 16.10696,-13.17843 m -286.99684,8.78562 c -2.00126,6.73265 -4.78224,11.18588 -11.71415,13.17843 0.78392,-7.21724 3.47692,-14.39818 11.71415,-13.17843 m 112.74876,38.07101 v 2.92854 c -7.56641,1.88574 -13.49355,-0.68781 -17.57123,-7.32135 l 17.57123,4.39281 m -150.81977,-1.46427 c -1.41439,9.09019 -9.71723,16.36551 -19.0355,14.6427 4.01248,-7.57508 10.41134,-13.33572 19.0355,-14.6427 m 137.64135,21.96404 c -7.3638,1.79406 -12.35595,-0.83599 -16.10697,-7.32134 7.2444,-1.76474 12.65827,0.68851 16.10697,7.32134 m -213.78336,26.35686 c -11.82754,31.72202 -11.45878,65.88479 2.92853,96.64179 h 2.92854 l 37.44961,-55.64224 14.95679,-15.80419 11.44072,20.19699 26.9376,64.42787 c 16.27913,-9.87775 27.40383,-43.56328 36.82704,-60.03506 3.07592,-5.37671 8.14844,-18.3065 14.56927,-20.19699 7.15722,-2.1072 13.15032,12.65346 16.03355,17.26845 12.98387,20.78254 25.20155,42.05986 37.99755,62.9636 13.70973,-16.60889 20.32774,-44.56202 28.66398,-64.42787 2.41797,-5.76225 5.67191,-20.83652 12.39884,-22.92211 6.12082,-1.89772 13.01443,11.66197 15.83805,15.60077 13.37531,18.65772 28.56674,37.0359 39.74092,57.10651 h 2.92854 c 14.16706,-34.07251 14.38039,-62.91193 2.92854,-98.10606 -64.28264,8.65638 -124.59492,24.78623 -190.35505,21.90639 -39.23204,-1.71808 -75.8613,-13.3351 -114.21302,-18.97785 m 289.88918,27.62683 c 8.06956,0 8.47942,12.70385 0.0362,12.70385 -8.45243,0 -8.34769,-12.70385 -0.0362,-12.70385 m -275.20922,4.3928 c 7.41979,0 9.25901,11.83079 1.36824,12.69027 -8.26137,0.89999 -9.96636,-12.69027 -1.36824,-12.69027 m 229.85306,3.12284 c -11.39422,21.37293 -19.16411,45.08196 -28.66856,67.3564 -2.04678,4.79677 -5.83321,20.19698 -12.42135,20.19698 -6.7903,0 -12.77366,-15.2801 -15.724,-20.19698 -11.30662,-18.84291 -22.88681,-47.49805 -39.82789,-61.49932 -10.29533,22.02498 -24.15853,43.25404 -36.1955,64.42786 -2.36759,4.16473 -8.68623,20.2506 -15.16466,18.1045 -6.0427,-2.00165 -9.9904,-17.12874 -12.18417,-22.49731 -8.50105,-20.80364 -16.12744,-43.43601 -27.24038,-62.96359 -16.36378,13.3223 -27.08908,36.95457 -39.12515,54.17797 -5.4424,7.78804 -10.1712,18.38594 -20.9099,14.6427 0.79969,10.29367 9.02449,10.15301 17.57123,12.26217 18.4023,4.54136 36.79228,8.06457 55.64225,9.94933 48.99878,4.8992 97.45605,5.42855 146.42695,-0.66438 30.76914,-3.82825 61.49199,-13.1779 92.24899,-15.69004 l 1.46427,-14.6427 h -1.46427 c -2.14681,3.30729 -5.09554,9.33132 -10.01824,7.23323 -6.37562,-2.71728 -11.79128,-13.51 -15.71721,-18.94739 -12.14288,-16.81765 -24.86997,-33.59678 -35.76387,-51.24943 h -2.92854 m -144.63278,8.23312 c 7.58673,-3.09746 12.93927,8.58953 5.19273,11.29732 -6.96302,2.43378 -12.67857,-8.24116 -5.19273,-11.29732 m 95.05772,0.0575 c 7.70233,-2.63325 11.65106,10.17161 3.97258,12.03054 -7.25985,1.7576 -11.30304,-9.52437 -3.97258,-12.03054 m -143.65088,51.38055 c 7.38619,-0.19402 8.94398,11.74375 1.27555,12.57285 -8.01415,0.86645 -9.20223,-12.36471 -1.27555,-12.57285 m 195.1501,-0.18866 c 7.3807,-3.27485 13.00506,8.61367 5.1859,11.29733 -6.73489,2.31151 -11.7289,-8.39418 -5.1859,-11.29733 m -97.0226,6.16326 c 7.82545,-1.63585 10.75967,10.09314 2.77035,12.1209 -7.92947,2.01257 -10.83004,-10.43614 -2.77035,-12.1209 m 121.45529,51.49575 48.3209,15.90016 48.32089,14.36592 29.28539,7.47498 32.21393,-14.31274 v -2.92854 l -83.46336,-23.64979 -40.99955,-9.35617 -33.6782,12.50618 m 76.14202,14.6427 -42.46382,-11.71416 v -2.92854 c 12.96599,-3.27441 33.91682,4.67218 42.46382,14.6427 m 10.24988,-8.78562 v 2.92854 c -5.5492,1.26479 -8.23268,0.0942 -7.32134,-5.85708 l 7.32134,2.92854 m -96.2339,4.4391 c -9.28958,5.71372 -9.53625,33.87787 -11.53683,43.8818 -2.65471,13.27467 -14.01415,43.10864 -7.43539,55.48404 4.29798,8.08513 17.95776,9.47075 25.88568,11.90847 25.26544,7.76874 50.82437,14.71285 76.14202,22.33806 7.14931,2.15324 23.16591,9.67871 30.11584,5.16337 8.39254,-5.45266 8.44564,-34.23051 10.02502,-43.64451 2.19006,-13.05411 13.89036,-46.45749 6.45363,-57.99452 -4.57682,-7.10041 -19.96505,-8.84683 -27.55899,-11.03296 -23.95212,-6.89513 -47.6255,-14.93145 -71.74921,-21.21377 -7.64246,-1.99022 -22.88306,-9.47761 -30.34177,-4.88998 m -206.8699,13.13214 -1.46427,1.46427 c -5.9507,-2.9357 -8.05714,-6.6424 -8.78562,-13.17843 6.25336,1.85142 8.43273,5.61774 10.24989,11.71416 m 341.17481,1.46427 C 743.75065,838.0747 729.6213,836.1364 724.48742,826.5686 l 1.46427,-1.46427 c 9.96926,1.93445 22.73022,3.38595 27.82112,13.17843 m -122.78058,2.35352 c 6.33058,-1.25247 29.19335,5.62238 30.89543,12.479 1.78422,7.18765 -14.65681,18.90618 -20.79926,19.83653 -8.53046,1.29206 -19.086,-30.53712 -10.09617,-32.31553 m -231.57266,2.03929 5.85708,11.71415 c -7.02379,-0.31656 -10.07556,-5.88264 -5.85708,-11.71415 m 32.21393,1.46427 7.32135,13.17842 c -8.20238,0.78861 -12.27201,-6.53202 -7.32135,-13.17842 m 311.88943,118.60583 c 10.03825,-1.00607 26.41073,-6.47857 32.61271,-14.91385 5.17713,-7.04144 5.27178,-19.16572 6.9215,-27.54997 4.81553,-24.47396 10.23442,-51.185 10.25095,-76.14201 -9.50819,2.60054 -24.65298,7.47827 -31.18463,15.2144 -5.95781,7.05645 -5.5442,21.36507 -7.0039,30.17795 -3.97277,23.98537 -10.55403,48.92595 -11.59663,73.21348 m -108.35595,-114.21303 5.85708,16.10697 11.71415,-10.24989 -17.57123,-5.85708 M 427.2407,871.961 c -8.26664,1.86018 -12.02371,-3.95685 -10.24989,-11.71416 L 427.2407,871.961 m 36.60674,4.39281 c -7.81701,-1.26122 -12.0212,-6.787 -11.71416,-14.6427 7.41389,2.13107 10.37978,7.27675 11.71416,14.6427 m 248.92583,21.96404 c -2.27059,-4.2634 -4.11406,-8.63691 -5.77915,-13.17843 -1.78959,-4.88105 -7.89637,-17.72943 -2.12295,-21.86466 5.51354,-3.94899 30.21237,6.22252 31.07283,13.02819 0.68433,5.41246 -8.03837,11.42907 -11.45658,14.63027 -3.67971,3.44618 -6.97691,5.77414 -11.71415,7.38463 m -33.73692,-29.64923 c 8.84209,-2.03294 19.39593,31.04879 10.09053,33.55505 -5.83062,1.57045 -25.90418,-1.496 -28.83121,-7.44781 -3.27091,-6.65124 12.58277,-24.69141 18.74068,-26.10724 m -100.97589,0.36384 c 0.43078,7.56042 -2.68437,11.98289 -10.24988,13.17842 1.03912,-6.72899 4.14176,-10.29601 10.24988,-13.17842 M 711.309,871.961 715.7018,888.06796 727.41596,876.35381 711.309,871.961 m 68.82067,4.39281 c 3.01639,16.49233 -1.27856,60.20164 -20.49978,65.89213 l 10.65769,-29.28539 6.91355,-36.60674 h 2.92854 m -102.49887,1.46427 -8.78562,13.17842 16.10696,4.39281 -7.32134,-17.57123 m 90.78471,4.3928 c 2.24001,10.34355 -1.72837,24.08207 -5.85708,33.67821 h -1.46427 c -3.33858,-11.29894 0.92661,-22.83803 4.39281,-33.67821 h 2.92854 m -137.70463,9.75387 c 8.89458,-2.61189 22.10223,26.97371 14.23481,29.90456 -5.76654,2.14824 -30.60095,-5.30959 -31.48519,-12.14912 -0.69871,-5.40459 6.44442,-10.11191 9.99348,-13.02927 2.19462,-1.80406 4.46315,-3.90574 7.2569,-4.72617 m -68.75738,4.88883 c -0.31522,7.378 -5.00287,10.89488 -11.71416,13.17843 l -1.46427,-1.46427 c 2.36371,-6.78959 6.38928,-9.69186 13.17843,-11.71416 m 68.82067,2.92854 -8.78562,8.78562 16.10697,4.39281 -7.32135,-13.17843 m 80.38119,16.6516 c 5.60442,1.83533 17.57642,22.7177 11.2656,27.21429 -5.26534,3.75182 -22.85874,-1.44212 -28.59732,-3.44369 -14.26707,-4.97623 9.08073,-26.47267 17.33172,-23.7706 m -13.02479,15.56233 v 1.46427 l 17.57123,2.92854 -5.85707,-11.71416 z"
       id="path6" /></g></svg>
