<?xml version="1.0" encoding="UTF-8" standalone="no"?>
<!-- Created with Inkscape (http://www.inkscape.org/) -->

<svg
   width="1024"
   height="1024"
   viewBox="0 0 1024 1024"
   version="1.1"
   id="svg1"
   xml:space="preserve"
   xmlns="http://www.w3.org/2000/svg"
   xmlns:svg="http://www.w3.org/2000/svg"><defs
     id="defs1" /><g
     id="layer4"
     style="display:inline"><path
       style="display:inline;fill:#000000;fill-opacity:1;stroke-width:1.20971"
       d="M 308.90245,513.04003 V 197.30539 h 21.77481 21.77481 v 315.73464 315.73464 h -21.77481 -21.77481 z m 62.905,-0.14262 V 197.24956 l 21.47237,0.33035 21.47237,0.33034 V 513.04003 828.1698 l -21.47237,0.18775 -21.47237,0.18777 z m 185.38824,315.05652 -5.14127,-0.52812 v -12.08238 -12.08236 l 4.53642,0.89051 c 2.49503,0.48978 18.41785,0.90466 35.38405,0.92193 23.24967,0.0237 34.42315,-0.49217 45.36417,-2.09434 100.61368,-14.73358 182.41506,-73.86578 226.21371,-163.52434 19.75097,-40.4315 27.99374,-73.97433 29.28133,-119.15656 0.78937,-27.69943 -0.64173,-45.08955 -5.72027,-69.51042 -13.05042,-62.75464 -47.36158,-119.2857 -98.56086,-162.38876 -33.85477,-28.50126 -72.79915,-48.30937 -118.53219,-60.28853 -21.20644,-5.55475 -35.82177,-7.74413 -59.71815,-8.94578 -18.52873,-0.93173 -54.56566,0.20166 -57.14755,1.79735 -0.63288,0.39115 -1.10066,-4.43126 -1.10066,-11.34717 0,-11.44927 0.13091,-12.06265 2.72186,-12.76027 6.13196,-1.65103 51.58988,-2.23727 66.83654,-0.86196 117.69152,10.61628 214.76985,76.48031 264.92984,179.74504 19.68071,40.51682 28.92354,77.98484 30.43873,123.39055 1.86105,55.77097 -8.98308,105.6606 -33.60528,154.60479 -38.94643,77.41797 -106.66143,134.80221 -189.18062,160.31882 -35.45815,10.96438 -54.60522,13.74115 -97.38176,14.12265 -18.96222,0.16912 -36.79033,0.0698 -39.61804,-0.22065 z m -56.82155,-42.02586 c -7.12706,-5.99702 -38.48238,-42.05543 -39.5021,-45.42713 -0.5824,-1.92569 -0.71716,-4.86286 -0.29947,-6.52701 0.41767,-1.66416 7.83489,-10.97205 16.48271,-20.68417 8.64781,-9.71212 15.7233,-18.14317 15.7233,-18.73564 0,-0.59249 -7.34901,-9.6504 -16.3311,-20.12873 -14.80437,-17.27043 -16.33112,-19.48427 -16.33112,-23.68084 0,-5.10793 -0.11026,-4.96166 21.09928,-28.00386 10.77468,-11.70574 11.88852,-13.33436 10.56685,-15.45067 -0.81256,-1.30112 -8.03137,-9.97151 -16.04179,-19.26756 -15.31607,-17.77421 -17.50389,-22.03137 -14.35041,-27.92372 0.84515,-1.57917 8.25327,-10.31134 16.46246,-19.40481 8.20921,-9.09345 14.92583,-17.16882 14.92583,-17.94524 0,-0.77641 -6.66854,-9.04037 -14.81897,-18.36436 -16.68289,-19.08498 -17.7404,-20.63513 -17.80038,-26.09246 -0.0449,-4.09262 3.60832,-8.86264 23.84893,-31.13908 4.82373,-5.3089 8.77042,-9.9673 8.77042,-10.35199 0,-0.38468 -7.34901,-9.26455 -16.3311,-19.73304 -21.72785,-25.32342 -21.85032,-22.49114 2.11698,-48.95584 7.81776,-8.63236 14.21412,-16.23422 14.21412,-16.89304 0,-0.65879 -6.72938,-8.77989 -14.95416,-18.04686 -16.43715,-18.51992 -17.70806,-20.35289 -17.70806,-25.53926 0,-3.95884 1.74361,-6.33335 20.26266,-27.59459 6.81975,-7.82956 12.39215,-14.54117 12.3831,-14.9147 -0.009,-0.37353 -7.09058,-8.49654 -15.73674,-18.05112 -8.64615,-9.55459 -16.0369,-18.6335 -16.42386,-20.17536 -1.70919,-6.80989 3.64102,-13.86537 10.51418,-13.86537 2.49096,0 5.38083,0.32686 6.42194,0.72636 1.04108,0.39951 10.91796,10.7392 21.94858,22.97709 20.91599,23.20517 22.82591,26.35584 20.09714,33.15296 -0.66776,1.66335 -7.55847,10.10109 -15.31265,18.75053 -7.7542,8.64944 -14.66487,16.89985 -15.35706,18.33424 -1.12148,2.32403 0.46582,4.52652 14.57846,20.22872 15.86328,17.65001 18.02596,21.13203 16.61545,26.75194 -0.41616,1.65813 -7.82418,10.96849 -16.46224,20.68968 -8.63808,9.7212 -15.7056,18.39787 -15.7056,19.2815 0,0.88363 7.06828,9.54478 15.70727,19.247 15.72565,17.66107 17.85802,21.10336 16.47823,26.60095 -0.40646,1.61941 -7.84789,10.90739 -16.53654,20.63995 -8.68864,9.73254 -15.628,18.42678 -15.42081,19.32052 0.20719,0.89375 7.31895,9.61738 15.80392,19.38585 8.48494,9.76846 15.75687,19.07437 16.1598,20.67981 1.38259,5.50867 -0.84013,9.09711 -16.50061,26.63911 -8.63018,9.66708 -15.69126,18.23895 -15.69126,19.04857 0,0.80962 6.32376,8.52943 14.0528,17.15515 15.50531,17.30412 18.59817,21.58357 18.60488,25.74274 0.007,4.40808 -1.84826,7.0048 -17.73503,24.82106 -8.20745,9.20429 -14.92265,17.2901 -14.92265,17.96848 0,0.6784 3.97831,5.66813 8.84069,11.08831 22.27195,24.82699 24.92843,28.86927 23.28233,35.42789 -0.44082,1.75635 -7.64394,10.87454 -16.00694,20.26267 -8.36302,9.38812 -15.47118,17.75648 -15.79593,18.59635 -0.32473,0.83986 3.68926,6.20703 8.91996,11.92697 22.74373,24.871 22.5393,24.58967 21.81141,30.01642 -1.28372,9.57098 -11.31701,13.57826 -18.6171,7.43563 z m 130.50433,-34.09218 c -5.8978,-4.13098 -5.72935,-11.69141 0.34923,-15.67426 9.013,-5.90554 18.68478,6.96204 11.00518,14.64162 -3.43046,3.43046 -7.41383,3.79273 -11.35441,1.03264 z m 71.73003,-45.79195 c -3.62879,-3.62877 -3.78803,-7.76072 -0.46208,-11.98897 3.1416,-3.9939 9.61691,-4.3701 13.21901,-0.768 3.60212,3.6021 3.22592,10.07741 -0.76799,13.21902 -4.22826,3.32595 -8.36019,3.1667 -11.98894,-0.46205 z M 552.05442,647.72378 v -39.80733 l 11.79469,1.09656 c 30.82012,2.86533 60.80837,-5.55912 82.81935,-23.26605 27.29807,-21.96015 43.19727,-52.57722 48.59249,-93.57446 l 0.597,-4.53641 h -21.02644 c -20.08226,0 -21.16532,-0.12226 -24.11947,-2.72186 -1.70116,-1.49701 -3.40864,-4.37091 -3.79442,-6.38647 -0.81352,-4.25055 -0.43458,-4.85636 23.1609,-37.02688 8.60694,-11.73486 24.90328,-34.15552 36.21408,-49.82366 11.31081,-15.66814 21.81554,-29.06651 23.34387,-29.77418 6.82859,-3.1618 11.5867,-1.29627 17.49226,6.85821 2.29702,3.17176 20.04225,27.89425 39.43385,54.93884 37.97135,52.95697 38.3969,53.73807 32.94745,60.47529 -2.2443,2.77463 -2.91061,2.86661 -23.4294,3.23438 l -21.11943,0.37854 -0.8195,9.29915 c -1.17938,13.38286 -6.06738,36.63282 -10.48776,49.8855 -4.81636,14.43988 -16.00675,38.09751 -23.50626,49.69463 -24.13984,37.32951 -61.61179,66.99357 -102.18926,80.89652 -20.6161,7.06365 -30.65601,8.63606 -59.59277,9.33315 l -26.31123,0.63384 z m 216.91983,18.96718 c -8.76764,-3.61897 -5.8859,-17.43744 3.63644,-17.43744 5.89293,0 9.28887,3.27273 9.28887,8.95185 0,6.78855 -6.57659,11.10613 -12.92531,8.48559 z M 121.94709,639.50984 c -3.80155,-3.80155 -3.79462,-8.16846 0.0325,-20.48952 3.85766,-12.41934 4.86717,-21.75215 3.09085,-28.57452 -0.77729,-2.98538 -4.58896,-12.23258 -8.47039,-20.54934 -12.69139,-27.19398 -12.9236,-40.67248 -1.0972,-63.69115 12.1357,-23.6207 12.34806,-32.96835 1.23443,-54.33495 -8.71928,-16.76334 -12.38041,-36.89542 -8.18502,-45.00842 3.74354,-7.23918 11.93942,-8.6264 17.5888,-2.97705 3.00635,3.00635 3.41543,4.42875 4.00867,13.93745 0.61146,9.801 1.20423,11.73581 7.9617,25.98748 13.36837,28.19415 13.24504,40.22568 -0.71472,69.7179 -6.54122,13.81941 -6.92666,15.14621 -6.92666,23.8441 0,8.73689 0.32109,9.82672 6.24548,21.19733 9.42118,18.08207 11.64695,25.53774 11.68775,39.15066 0.0498,16.6472 -6.75403,40.48007 -12.42252,43.51375 -4.27183,2.28621 -10.82915,1.48079 -14.03366,-1.72372 z m 62.04935,0.569 c -4.92108,-3.87091 -5.05996,-7.48615 -0.82409,-21.45238 3.37537,-11.12908 3.7707,-13.90258 3.2964,-23.1271 -0.50704,-9.86184 -0.94587,-11.2874 -7.42235,-24.11261 -7.86097,-15.5669 -10.48307,-24.28365 -10.44087,-34.70909 0.0429,-10.59983 1.70412,-16.49055 9.11251,-32.31331 10.88702,-23.25234 10.97938,-29.78855 0.71003,-50.25259 -3.27878,-6.53371 -6.83681,-14.82731 -7.90675,-18.43021 -2.25317,-7.58724 -2.59668,-25.13339 -0.57872,-29.56228 2.78119,-6.10406 13.86742,-7.1726 18.72994,-1.80526 1.76088,1.94367 2.42748,5.05182 2.91441,13.58892 0.58923,10.33042 1.08829,12.03703 7.48086,25.58204 8.41936,17.83947 9.41578,21.4888 9.41262,34.47343 -0.003,12.23371 -2.14565,19.8653 -10.35922,36.89619 -5.45316,11.30718 -5.83811,12.73342 -5.89501,21.84158 -0.0594,9.50119 0.11275,10.0901 6.89384,23.58936 9.10723,18.12996 11.05815,26.05948 10.24992,41.66061 -0.8709,16.81087 -7.44663,37.87309 -12.41998,39.78154 -3.86528,1.48323 -9.95763,0.70776 -12.95354,-1.64884 z m 61.69527,0 c -4.88185,-3.84006 -5.00195,-7.32881 -0.72086,-20.93829 2.87399,-9.13636 3.90178,-14.71515 3.95167,-21.44962 0.0652,-8.79893 -0.20217,-9.66415 -8.03597,-26.00878 -9.76838,-20.38099 -11.06195,-25.24774 -10.39859,-39.12237 0.4932,-10.31559 0.80869,-11.31015 8.91768,-28.11124 8.10662,-16.79618 8.4064,-17.74085 8.4064,-26.49014 0,-8.61885 -0.37454,-9.85972 -7.48558,-24.79908 -9.03854,-18.98884 -10.0398,-22.52388 -10.04847,-35.47711 -0.006,-9.52471 0.18577,-10.2657 3.52933,-13.60925 4.55014,-4.55014 10.59503,-4.79173 15.44942,-0.61742 3.15768,2.71531 3.43813,3.7058 4.02548,14.21743 0.59243,10.60232 1.0519,12.19343 7.45386,25.812 8.83753,18.79965 9.60239,21.47837 9.63658,33.74992 0.0349,12.50985 -1.85174,19.35725 -10.07625,36.57137 -5.92123,12.39335 -6.28501,13.70591 -6.3582,22.94126 -0.0757,9.56121 0.0876,10.12611 6.82045,23.58937 8.67865,17.35405 10.64275,24.25782 10.64275,37.40898 0,16.01132 -6.10662,37.86137 -11.84238,42.37312 -3.85658,3.03359 -9.98226,3.01586 -13.86732,-0.0401 z m 571.28948,-67.76297 c -3.16271,-3.1627 -3.28016,-10.94316 -0.20718,-13.72417 2.9897,-2.70565 10.19054,-2.58668 12.72165,0.21018 2.80959,3.10457 2.5807,10.51594 -0.41736,13.51399 -1.34413,1.34413 -4.03237,2.41943 -6.04857,2.41943 -2.01618,0 -4.70443,-1.0753 -6.04854,-2.41943 z M 583.88842,536.0161 c -5.73042,-2.30884 -6.94257,-10.47642 -2.25105,-15.16793 3.62875,-3.62877 7.7607,-3.78802 11.98895,-0.46208 5.17273,4.06889 4.26135,11.97598 -1.73795,15.07835 -3.86753,1.99997 -4.32672,2.03164 -7.99995,0.55166 z m 49.21666,-158.08708 c -6.14182,-2.34345 -8.36419,-11.21287 -3.83631,-15.31055 3.10456,-2.80958 10.51593,-2.58069 13.51399,0.41736 6.3266,6.3266 -1.31377,18.0845 -9.67768,14.89319 z m 48.93832,-72.29949 c -6.07647,-6.07645 -2.34122,-15.66026 6.10353,-15.66026 8.44475,0 12.18001,9.58381 6.10354,15.66026 -3.7843,3.78432 -8.42277,3.78432 -12.20707,0 z M 581.08749,285.61432 c -3.6021,-3.60212 -3.22592,-10.07743 0.76799,-13.21903 1.75309,-1.37898 4.40153,-2.50723 5.88542,-2.50723 4.64299,0 9.07283,4.47272 9.07283,9.16065 0,5.47044 -3.54892,8.98502 -9.07283,8.98502 -2.62105,0 -5.15567,-0.92167 -6.65341,-2.41941 z"
       id="path8" /></g></svg>
