<?xml version="1.0" encoding="UTF-8" standalone="no"?>
<!-- Created with Inkscape (http://www.inkscape.org/) -->

<svg
   width="1024"
   height="1024"
   viewBox="0 0 1024 1024"
   version="1.1"
   id="svg1"
   xml:space="preserve"
   xmlns="http://www.w3.org/2000/svg"
   xmlns:svg="http://www.w3.org/2000/svg"><defs
     id="defs1" /><g
     id="layer5"
     style="display:inline"><path
       style="display:inline;fill:#000000;stroke:none;stroke-width:1.25744"
       d="m 363.28839,341.8464 c -15.36996,-7.16258 -23.88062,3.4849 -23.88158,18.86155 -0.001,21.48924 7.98213,45.97018 16.72895,65.38671 5.75401,12.773 11.19317,21.33383 26.01417,21.37641 2.83461,21.0326 12.291,41.57708 21.68692,60.35696 4.67781,9.34967 11.84177,18.61059 14.12771,28.92106 2.84189,12.81812 0.86943,24.8927 0.65491,37.72309 -0.0726,4.35007 -1.87356,10.75345 0.80433,14.5061 16.28727,22.82383 53.2421,30.80069 65.77286,57.16778 6.3172,13.29258 -5.75275,16.62174 -5.98349,27.66361 -0.11772,5.63376 6.5512,10.30992 7.16721,16.34668 2.47231,24.22753 -18.60249,24.21041 -35.07143,21.37643 -12.10804,25.4294 -28.18582,9.3373 -46.52516,5.02974 -9.42474,18.16576 -23.65413,15.91812 -38.98052,7.36902 -16.57996,-9.24835 -38.10983,-26.27722 -56.58466,-30.32691 -12.2781,-2.69139 -36.0923,11.22738 -47.78259,15.65487 -41.92204,15.8773 -103.08719,33.76045 -105.5752,89.03641 -0.8848,19.65741 18.27269,23.06271 33.90131,28.48833 37.24471,12.92979 75.55089,22.31444 114.42674,28.83372 76.87026,12.89079 154.90484,17.53181 232.62578,15.62768 67.71976,-1.65906 135.93762,-5.01631 202.4473,-19.60377 33.31255,-7.3064 65.78863,-14.90483 98.08005,-26.11507 10.0433,-3.48665 28.83411,-7.1466 30.71603,-19.68629 1.43586,-9.56784 -2.85049,-21.58255 -6.65106,-30.17846 -18.34317,-41.4879 -61.99621,-52.5428 -100.76861,-66.71107 -11.41431,-4.17109 -34.64949,-18.30581 -46.52516,-15.40943 -18.70045,4.56088 -39.71954,20.98256 -56.58463,30.38999 -15.72027,8.76882 -30.48671,10.68424 -38.98054,-8.62646 -16.39619,7.75661 -38.02433,21.5901 -46.52516,-5.02976 -15.75233,6.42796 -36.38484,3.22296 -35.07137,-18.86153 0.44191,-7.43064 5.79185,-12.40352 8.66522,-18.86155 -31.08434,-25.96825 26.13908,-57.88022 44.01026,-72.17644 4.6048,-3.68374 11.94035,-7.63103 15.0495,-12.71804 2.40888,-3.94131 0.21119,-10.10368 0.0533,-14.443 -0.44945,-12.35243 -2.06982,-24.12753 0.46178,-36.46567 2.392,-11.65786 11.26605,-22.28727 16.72603,-32.69335 9.08896,-17.32253 16.64791,-38.41268 19.26426,-57.84209 13.40101,3.15196 19.06593,-6.72727 24.16591,-17.60412 9.42954,-20.11062 19.48505,-47.87169 18.45593,-70.41645 -0.65191,-14.27978 -10.05589,-24.02177 -23.7603,-16.34668 1.93122,-44.98506 5.5168,-95.90587 -22.53392,-134.54572 -50.74936,-69.9073 -190.86421,-73.88544 -246.14806,-7.5446 -32.98864,39.58644 -31.87354,93.93635 -28.07305,142.09032 m 40.23796,189.87295 c -39.74367,26.81139 -97.56131,27.9652 -115.23689,80.47593 -2.69238,7.99866 -2.96214,15.53914 -2.96214,23.89129 0,9.21803 0.31608,17.73889 3.89068,26.40618 5.06878,12.29017 16.48555,18.2838 27.54521,24.27941 16.04119,8.69621 31.89408,17.76475 47.7826,26.74185 8.19584,4.63075 23.25433,15.59441 29.95339,2.99325 5.07771,-9.5514 -4.28101,-15.49816 -11.09184,-20.06281 -13.16366,-8.82224 -38.33876,-19.40967 -45.26772,-33.9517 10.03387,3.1974 18.89787,11.04601 27.66361,16.77938 18.27558,11.95347 36.27252,24.73781 55.32721,35.44498 10.37684,5.83093 26.40979,-0.4426 20.2975,-14.38384 -3.05813,-6.97524 -13.02891,-11.54688 -19.04007,-15.63938 -12.68687,-8.63734 -24.96457,-17.86735 -37.72309,-26.39265 -7.07207,-4.72558 -16.29724,-9.36401 -20.11899,-17.18492 8.99404,2.11348 16.35509,9.15801 23.8913,14.24708 16.47957,11.12829 32.60283,22.77762 49.04003,33.96821 7.96495,5.42271 17.57018,15.19025 27.66361,15.75771 18.07495,1.01631 12.20771,-19.79325 3.76747,-27.1299 -24.39964,-21.20956 -54.76151,-43.74764 -82.98599,-59.47696 v -1.25744 c 8.56902,-1.92566 16.02177,6.23915 22.63386,10.95115 l 38.98054,28.0294 c 5.89707,4.20477 12.34167,10.47302 20.11804,9.89939 16.43692,-1.21231 9.07166,-20.07954 1.25355,-26.49151 -25.87091,-21.21819 -55.23515,-49.50268 -85.50086,-63.88384 v -1.25743 c 6.36659,-2.47006 16.19557,-5.06 20.61769,-10.55044 4.98701,-6.19194 3.00476,-25.6127 -0.4987,-32.20239 m 215.02167,0 c -3.79403,20.43609 -4.24952,37.15146 20.11897,41.49541 -7.24384,8.89873 -18.57342,15.4874 -27.66359,22.48441 -19.30293,14.85822 -39.25515,29.15106 -57.82268,44.93302 -8.85094,7.52298 -11.66674,26.7907 5.01034,25.47661 7.18744,-0.56627 13.25006,-6.79448 18.86155,-10.79489 l 37.7231,-26.77195 c 6.58319,-4.686 14.1097,-12.90791 22.63386,-11.31694 v 1.25744 c -27.97467,15.93593 -55.03811,37.95074 -80.47594,57.7014 -7.90842,6.14037 -18.83746,22.25941 -3.75291,28.12741 10.48155,4.0773 22.37101,-7.80772 30.15907,-13.24968 24.51089,-17.12712 48.82151,-35.40523 74.18875,-51.20271 -0.38635,8.8739 -12.25094,13.88208 -18.86155,18.50936 -12.97898,9.08495 -25.88458,18.27527 -38.98052,27.19108 -5.74458,3.91099 -14.30104,8.28784 -17.5692,14.67495 -7.10768,13.8909 9.92587,20.02611 20.08407,14.51393 20.44417,-11.09375 39.39267,-25.36033 59.09951,-37.69985 7.45322,-4.66687 16.04024,-13.65413 25.14874,-13.29817 -10.39073,13.45489 -32.09724,23.89834 -46.52514,32.93587 -6.62251,4.14838 -15.85243,10.79873 -11.09085,19.82121 6.21619,11.77865 19.58032,2.91089 27.43751,-1.55537 15.87314,-9.02256 31.87852,-17.81026 47.78261,-26.77679 9.6729,-5.45346 20.17914,-10.0647 26.8612,-19.39608 7.26317,-10.14309 7.08957,-22.07692 7.08957,-33.94988 0,-27.35239 -14.67096,-53.53132 -38.98054,-67.47763 -15.13528,-8.68294 -31.89241,-11.45438 -47.78259,-18.04265 -11.52084,-4.7767 -21.35815,-12.82271 -32.69334,-17.58951 m -448.79137,6.3231 c -7.11619,3.78687 -12.62913,14.72497 -16.84343,21.34049 -16.74942,26.29321 -22.76634,55.04339 -9.45213,84.24826 5.23706,11.48753 12.09633,23.06187 20.30334,32.68751 3.51257,4.11975 8.73062,9.26576 14.51292,6.06209 4.59164,-2.54396 5.36557,-7.94226 3.20278,-12.34343 -6.11338,-12.44036 -16.43986,-22.08442 -21.88194,-35.20823 -9.2104,-22.2112 -5.49515,-42.58216 6.85574,-62.87184 4.70792,-7.73402 14.34005,-16.06299 16.06822,-25.14873 1.35372,-7.11712 -6.6689,-12.01058 -12.7655,-8.76612 m 675.41716,0 c -4.52521,2.72999 -4.17547,8.40312 -2.08601,12.53843 5.56714,11.01809 14.33466,20.1444 19.67845,31.43592 10.44676,22.07422 8.15024,43.22086 -4.06241,64.12926 -4.88577,8.36459 -13.03801,16.02911 -16.3331,25.14874 -2.31717,6.41313 2.72747,13.983 10.04207,11.5857 7.96015,-2.60897 14.12322,-15.03351 18.44728,-21.64519 18.08462,-27.65241 23.39886,-59.18863 7.57462,-89.27801 -4.38951,-8.34648 -20.83006,-41.41436 -33.2609,-33.91485 M 202.35595,564.4486 c -21.59947,10.97786 -23.28511,50.12094 -15.26487,69.1231 3.03929,7.20094 12.2397,27.77703 22.71634,22.38934 6.82908,-3.51183 4.8952,-10.80701 1.69503,-16.10216 -9.20477,-15.23062 -15.48672,-29.00163 -7.8551,-46.52515 2.87581,-6.60338 10.07191,-12.93723 10.921,-20.11897 0.83698,-7.07907 -5.69728,-12.07753 -12.2124,-8.76616 m 611.36358,-0.35511 c -5.24058,2.29207 -5.29354,8.46352 -3.07475,12.89356 7.55997,15.094 17.5428,27.20036 11.4761,45.26772 -2.833,8.43706 -12.02286,16.39212 -12.76072,25.14782 -0.48411,5.74442 4.66038,10.55068 10.36028,8.81848 6.63032,-2.01494 11.10303,-10.67517 14.12391,-16.36219 9.30336,-17.51439 10.68268,-37.09606 2.36544,-55.32721 -3.38988,-7.43042 -11.7527,-25.13452 -22.49026,-20.43818 z"
       id="path10" /></g></svg>
