<?xml version="1.0" encoding="UTF-8" standalone="no"?>
<!-- Created with Inkscape (http://www.inkscape.org/) -->

<svg
   width="1024"
   height="1024"
   viewBox="0 0 1024 1024"
   version="1.1"
   id="svg1"
   xml:space="preserve"
   xmlns="http://www.w3.org/2000/svg"
   xmlns:svg="http://www.w3.org/2000/svg"><defs
     id="defs1" /><g
     id="layer6"
     style="display:inline"><path
       style="display:inline;fill:#000000;stroke:none;stroke-width:1.03604"
       d="m 209.20725,330.31766 c 21.89008,-10.90162 42.68201,-30.60373 62.16231,-45.46582 21.6059,-16.48378 42.91681,-27.02716 68.37855,-11.03507 17.4163,10.93886 24.3225,37.49561 42.47759,46.1405 10.03786,-14.2631 26.3565,-27.44192 42.47758,-34.18928 -4.43853,-8.69464 -11.79415,-16.11373 -17.73579,-23.82886 -28.92559,-37.5597 -67.20277,-65.07346 -116.94922,-52.34235 -22.94486,5.87204 -41.18674,21.12175 -60.09026,34.58336 -13.12309,9.34527 -26.13456,18.91206 -39.36946,28.09374 -3.55217,2.46433 -12.87666,6.74774 -13.43413,11.5188 -0.5049,4.32107 5.48159,10.15632 7.87021,13.37175 8.15914,10.98337 16.23002,22.04047 24.21262,33.15323 m 165.76617,217.56812 c 7.05703,-29.71088 34.74203,-57.15059 54.81732,-78.73895 C 488.66316,405.83707 563.68573,349.22676 646.41554,323.06538 611.8027,273.96106 530.14003,286.84742 485.82955,312.705 c -23.308,-45.65809 -74.62703,-11.90931 -96.69852,16.57663 -8.33694,10.75984 -15.14296,25.8395 -9.07573,39.36947 2.47123,5.51091 13.0168,13.74785 12.14947,19.68473 -1.45913,9.98805 -14.3786,22.78521 -19.04762,32.11719 -15.01127,30.00332 -24.36713,64.31647 -14.61086,97.38763 2.7112,9.19022 8.10186,24.70114 16.42713,30.04513 M 164.56086,292.24881 c -7.20616,-0.47097 -10.35446,8.70174 -8.49936,14.23996 3.46629,10.3483 14.73756,22.53316 21.56495,31.07717 2.41984,3.02826 5.65564,6.63448 9.82398,6.82373 4.94239,0.22436 12.05034,-4.45729 9.83037,-9.93184 -4.52613,-11.16169 -15.79395,-22.54148 -23.09582,-32.11321 -2.19287,-2.87452 -5.55753,-9.83005 -9.62412,-10.09581 m 480.81864,43.7039 c -26.36595,4.11803 -52.37168,20.78046 -74.59479,34.71848 -51.32947,32.1932 -98.48279,70.72412 -139.77248,115.05226 -15.91024,17.0811 -33.49837,37.2702 -42.55829,59.05421 -3.70462,8.9075 -8.15572,24.54836 6.20422,25.80346 26.06837,2.27827 53.54947,-16.69633 74.59477,-29.89564 58.46798,-36.67042 113.76873,-83.13079 159.49795,-134.73699 12.75182,-14.39065 25.48698,-30.72776 32.73595,-48.69383 5.88255,-14.57934 -0.23919,-23.78038 -16.10733,-21.30195 m -25.90097,31.66234 c -1.27121,9.51064 -10.45828,16.09692 -19.68473,16.57662 1.06355,-9.54928 10.50916,-16.09957 19.68473,-16.57662 m 15.54057,6.21622 c -0.95073,8.53633 -10.71071,18.30509 -19.68472,16.57662 2.57744,-8.67763 10.47294,-16.07338 19.68472,-16.57662 m -55.94606,16.57662 c -0.73191,9.71023 -10.49371,16.35549 -19.68474,16.57663 1.78681,-8.85604 10.78753,-16.09546 19.68474,-16.57663 m 20.72076,4.14416 c 2.06321,9.03062 -10.13294,18.65099 -18.64871,16.57662 2.74649,-8.60131 9.98738,-14.49537 18.64871,-16.57662 m 14.50454,11.39644 c -2.84853,8.37911 -10.80019,15.07864 -19.68473,15.54057 1.25811,-8.29671 10.99817,-17.65654 19.68473,-15.54057 m 55.94608,2.07206 c 2.95718,14.32672 5.36565,34.25112 13.4365,46.61777 10.50469,16.0959 36.2389,9.8772 38.1584,-9.32038 2.22074,-22.21082 -34.17005,-34.72397 -51.5949,-37.29739 m -113.96423,18.6487 c -1.24371,9.30475 -10.79811,16.22566 -19.68475,17.61265 1.05544,-9.48673 10.3729,-17.10904 19.68475,-17.61265 m -29.0091,4.14415 c -1.00549,9.02836 -11.31894,18.86787 -20.72076,16.57661 3.3307,-8.48818 11.37804,-16.07137 20.72076,-16.57661 m 58.01816,1.03604 c -1.76538,9.12447 -10.50866,16.61602 -19.68473,17.61266 1.04514,-9.38453 10.47161,-17.11443 19.68473,-17.61266 m 29.00909,20.72078 c 1.18464,8.7974 3.92497,17.31323 6.08514,25.90096 2.37807,9.45412 4.06929,20.24816 12.56753,26.2647 20.81083,14.73345 42.90746,-14.93372 25.78828,-32.38417 -5.59196,-5.70018 -13.38081,-8.49826 -20.61207,-11.482 -7.66399,-3.16229 -15.58427,-7.08191 -23.82888,-8.29949 m -99.45971,8.28831 c -1.00945,9.11701 -9.68788,16.68886 -18.6487,17.61265 0.69704,-9.24676 9.91785,-16.29819 18.6487,-17.61265 m 34.18928,4.14414 c -2.92979,7.56213 -10.91571,16.30674 -19.68474,14.50454 2.52385,-7.90289 10.75313,-16.87938 19.68474,-14.50454 m -70.45063,8.28832 c -1.70383,9.40662 -9.84882,15.18158 -18.6487,17.61266 -1.75985,-9.51754 10.25525,-17.17629 18.6487,-17.61266 m 264.18983,16.57662 c 1.95756,10.09416 4.41595,20.16126 7.25228,30.04511 2.55246,8.89474 4.87123,18.56378 13.46932,23.59227 21.12257,12.35324 40.30181,-17.01021 24.52353,-33.7608 -5.46173,-5.79824 -14.21025,-8.75384 -21.41623,-11.7322 -7.59291,-3.13828 -15.67344,-6.93995 -23.8289,-8.14438 m -232.07264,5.18019 c -2.78371,8.71665 -10.49745,15.06291 -19.68473,15.54059 1.14553,-8.57053 10.72829,-17.72238 19.68473,-15.54059 m -37.29738,6.21622 c -2.78584,8.72426 -9.87841,14.47407 -18.6487,16.57663 -1.99941,-8.9677 10.18533,-18.63832 18.6487,-16.57663 m 85.99121,-1.03603 c 0.64334,8.08318 3.08843,15.98621 5.0491,23.82889 2.10616,8.42465 3.65869,18.14933 9.67607,24.8194 14.42517,15.98968 39.17329,0.17459 34.45307,-19.63921 -2.92315,-12.2704 -16.08118,-16.76373 -26.3854,-21.15721 -7.28818,-3.10755 -14.91469,-6.68835 -22.79284,-7.85187 m -115.00029,10.3604 c 1.88097,9.77129 -9.34864,16.66754 -17.61266,18.64868 -1.79087,-9.57791 9.48179,-16.69492 17.61266,-18.64868 m 34.18927,6.21622 c -1.62678,8.4065 -10.67268,17.39272 -19.68474,15.54058 2.64218,-8.89561 10.42173,-15.05899 19.68474,-15.54058 m -32.1172,15.54058 c -2.80962,8.26453 -10.9056,15.06581 -19.68473,15.54059 0.97018,-8.71135 10.66555,-17.73762 19.68473,-15.54059 m 240.36097,4.14415 c 0.34885,8.00389 2.80665,16.09073 4.79646,23.82889 2.04686,7.96005 3.61634,18.36313 9.07654,24.76818 13.95022,16.36428 40.7361,2.0373 35.80726,-18.55194 -3.03096,-12.66112 -16.14345,-17.415 -26.88743,-22.04782 -7.30571,-3.15017 -14.87711,-6.82821 -22.79283,-7.99731 m -182.3428,9.32435 c 2.76775,10.69312 4.93417,21.49369 7.98693,32.1172 2.01122,6.99895 3.77069,14.426 9.67049,19.27699 19.75397,16.2425 44.13395,-13.9265 26.78353,-31.6127 -6.11316,-6.23155 -14.79009,-9.28268 -22.68414,-12.54041 -7.04018,-2.90532 -14.03964,-6.84498 -21.75681,-7.24108 m 312.88365,26.937 c 1.17383,9.08949 3.76828,18.08274 6.09634,26.93701 2.55729,9.72601 5.04905,21.27154 14.62525,26.50448 21.05888,11.50784 40.45262,-16.65421 24.52353,-33.5649 -5.53432,-5.87534 -14.23415,-8.57583 -21.41623,-11.82648 -7.38039,-3.34038 -15.79895,-6.8642 -23.82889,-8.05011 m -187.52297,11.39644 c 3.67741,14.20795 5.33194,30.19915 11.73535,43.51361 8.10695,16.85662 33.01899,14.96515 38.21271,-3.10812 6.75576,-23.50873 -31.74582,-38.81628 -49.94806,-40.40549 m -181.30676,8.28829 c 0.67055,8.42611 3.18016,16.75912 5.48078,24.86494 2.39731,8.44664 3.84409,19.12819 10.40034,25.54843 16.15395,15.81887 39.74265,-4.08079 33.1876,-23.47636 -3.62161,-10.71589 -15.79741,-14.76316 -25.23984,-18.65989 -7.74413,-3.19583 -15.47333,-7.04315 -23.82888,-8.27712 m 311.8476,25.90098 c 0.28057,13.59484 4.64126,36.65707 13.01043,47.64177 6.69157,8.78275 19.30659,11.05869 28.41594,4.52387 10.0838,-7.2338 11.05256,-22.28356 2.90185,-31.40012 -9.44986,-10.56956 -30.7789,-17.63091 -44.32822,-20.76552 m -185.4509,10.36038 c 0.2905,14.0734 4.38679,35.94126 12.54117,47.61616 6.69884,9.59108 20.92457,11.22462 29.89164,3.78126 9.51088,-7.8948 9.05299,-22.80537 0.74022,-31.40094 -9.52524,-9.84921 -30.02798,-16.88141 -43.17303,-19.99648 m 127.43275,37.29739 c 0.32952,15.87901 6.28629,50.21462 23.82888,55.28497 16.43738,4.75088 30.14174,-11.8129 24.75225,-27.31193 -3.91266,-11.252 -15.94774,-14.95706 -25.78829,-19.4457 -7.28838,-3.32457 -14.9855,-6.67722 -22.79284,-8.52734 m -184.41487,11.39641 c 2.00498,9.71908 4.2385,19.46039 6.95168,29.0091 2.40606,8.46776 4.46147,19.20806 12.77461,23.91602 19.86652,11.25099 40.61081,-15.26488 25.63795,-32.16274 -5.85497,-6.60777 -14.64067,-9.7425 -22.57139,-13.07042 -7.33049,-3.07607 -14.79192,-6.9934 -22.79285,-7.69196 m 127.43275,36.26135 c 0.1673,7.85352 2.50434,16.25552 4.58464,23.82889 2.11969,7.71687 3.24964,17.35353 8.2811,23.81289 14.06184,18.0527 42.48947,3.23815 36.20298,-18.63268 -3.4891,-12.13868 -15.80408,-16.5292 -26.27587,-21.01097 -7.20259,-3.08262 -15.02433,-6.83447 -22.79285,-7.99813 m -58.01817,47.65779 c 0.35145,16.93548 6.70769,54.91428 27.97305,56.20509 16.15059,0.98033 26.44067,-16.00402 19.63275,-30.30413 -4.09787,-8.60765 -13.4472,-12.44296 -21.70482,-15.97702 -8.52956,-3.65054 -16.97255,-7.33999 -25.90098,-9.92394 z"
       id="path12" /></g></svg>
