<?xml version="1.0" encoding="UTF-8" standalone="no"?>
<!-- Created with Inkscape (http://www.inkscape.org/) -->

<svg
   width="1024"
   height="1024"
   viewBox="0 0 1024 1024"
   version="1.1"
   id="svg1"
   xml:space="preserve"
   xmlns="http://www.w3.org/2000/svg"
   xmlns:svg="http://www.w3.org/2000/svg"><defs
     id="defs1" /><g
     id="layer2"
     style="display:inline"><path
       style="display:inline;fill:#000000;stroke:none;stroke-width:1.44036"
       d="m 432.16875,88.546165 c -21.19057,2.780956 -42.22036,2.97954 -63.37601,7.237416 C 318.48203,105.9093 268.44116,130.71337 229.07745,163.46066 64.702306,300.20667 64.020044,566.14229 236.27927,697.70675 c 53.22617,40.65196 115.31569,62.26691 181.48584,68.88296 43.66467,4.36584 89.23662,-0.33521 131.07312,-13.70235 64.4517,-20.59289 125.54514,-59.02169 166.89432,-113.2931 11.11166,-14.5842 21.86006,-29.6523 30.07761,-46.09165 2.16249,-4.326 8.7098,-14.84257 1.44821,-17.82782 -8.33783,-3.42764 -22.20151,12.33486 -28.45722,16.80541 -24.00195,17.15265 -50.84404,30.14178 -79.22001,38.26845 -91.32676,26.15557 -192.58923,1.48748 -262.14623,-63.30146 -87.00671,-81.04262 -112.25019,-211.23836 -60.12187,-318.19154 14.73833,-30.23901 36.2,-55.86305 60.12187,-79.19891 24.52486,-23.92416 55.54033,-43.46788 87.86221,-54.95053 7.51957,-2.67139 35.25277,-6.20903 37.60726,-14.50922 2.19698,-7.744949 -9.8321,-8.521217 -14.56144,-9.168952 -17.47317,-2.39307 -38.70401,-5.174553 -56.17419,-2.881873 m 253.50403,5.150188 c -10.30901,32.239657 -21.50162,51.311287 -57.61455,56.174187 v 1.44037 c 12.35202,4.72823 26.83433,6.42292 37.42723,14.96602 12.36246,9.97027 16.05551,28.08824 20.18732,42.64854 h 1.44038 c 4.50744,-33.44538 24.57619,-51.72536 57.61454,-56.1742 v -1.44036 c -14.15177,-5.33911 -30.71095,-6.93772 -41.46831,-18.78697 -10.30892,-11.35536 -10.66241,-26.0855 -17.58661,-38.827587 M 554.59967,214.68691 c -8.49739,41.05865 -31.0895,68.43963 -74.89891,72.0182 v 2.88073 c 44.8292,6.03654 65.14638,30.91886 74.89891,73.45855 h 1.44038 c 8.82106,-42.73599 30.32596,-67.45646 74.89891,-73.45855 v -1.44037 c -17.59858,-5.62738 -41.31834,-8.77421 -54.26034,-23.18031 -12.91297,-14.37384 -13.31105,-34.14772 -22.07895,-50.27825 m 265.02696,299.5957 v 23.04581 l 59.05491,-1.44037 c -20.74655,31.36397 -61.93565,55.46316 -61.93565,95.06403 h 100.82548 v -21.60546 l -64.81638,-1.44037 c 19.48993,-19.65255 36.40806,-42.29205 54.34261,-63.37601 5.32726,-6.26274 14.40585,-19.28577 7.55303,-27.93816 -3.91572,-4.94405 -18.77474,-2.30947 -24.44618,-2.30947 H 819.62663 M 718.80115,668.40153 v 20.16509 h 51.8531 c -12.61876,18.4545 -29.3162,34.823 -43.8177,51.85311 -5.87547,6.90002 -15.01901,16.80286 -10.04703,26.90906 2.8875,5.86907 16.79822,3.33858 22.17673,3.33858 h 67.69709 V 751.94264 H 749.0488 c 18.72209,-24.84188 54.73383,-51.14848 54.73383,-83.54111 H 718.80115 M 597.81059,786.51136 v 18.72473 h 50.41274 c -17.21615,26.02678 -51.8531,46.24639 -51.8531,79.22002 h 86.42182 l -1.48036,-16.41525 -14.36363,-2.30948 h -38.88983 c 18.51302,-22.81074 51.85311,-48.71301 51.85311,-79.22002 h -82.10075 m -90.74292,89.30257 v 11.52291 h 31.68801 c -10.58234,15.20162 -32.89788,29.27164 -33.12837,48.97236 h 54.73382 v -11.52291 h -33.12836 c 10.70488,-14.44116 31.4778,-30.12121 31.68799,-48.97236 z"
       id="path4" /></g></svg>
