<?xml version="1.0" encoding="UTF-8" standalone="no"?>
<!-- Created with Inkscape (http://www.inkscape.org/) -->

<svg
   width="1024"
   height="1024"
   viewBox="0 0 1024 1024"
   version="1.1"
   id="svg1"
   xml:space="preserve"
   xmlns="http://www.w3.org/2000/svg"
   xmlns:svg="http://www.w3.org/2000/svg"><defs
     id="defs1" /><g
     id="layer7"><path
       style="display:inline;fill:#000000;stroke:none;stroke-width:1.46427"
       d="m 562.01071,375.69189 c 9.5005,14.93861 25.00287,20.42747 40.99955,26.43032 26.84545,10.07392 54.1323,18.89252 81.99909,25.73546 17.89726,4.39486 39.5813,3.17815 42.18694,-19.95185 1.42718,-12.66909 -6.75535,-26.68592 -11.45311,-38.07101 -8.60426,-20.85297 -18.83744,-40.92062 -28.0087,-61.49932 -6.85634,-15.38448 -13.425,-32.81951 -27.61771,-42.99486 -17.34969,-12.4387 -58.51672,-11.41995 -67.1395,-33.15278 -8.39666,-21.163 25.24292,-43.99995 31.83776,-62.95797 6.19625,-17.81201 2.97619,-50.61829 -5.41986,-67.3564 -3.89073,-7.756501 -11.23969,-12.989039 -15.0834,-20.499776 -4.96755,-9.706687 -0.7711,-19.861382 -8.93585,-29.262783 -15.7862,-18.177267 -51.47017,-18.92772 -66.09322,1.463113 -6.06938,8.463346 -2.62642,17.864997 -6.84793,26.335401 -4.29219,8.612058 -12.82193,14.469048 -17.05154,23.428315 -7.44401,15.76816 -11.77999,49.49212 -5.51131,65.89213 2.41618,6.32119 7.48916,9.64494 11.3266,14.89124 8.37,11.44292 27.91555,36.95064 18.97563,50.97828 -12.39128,19.44313 -46.68686,17.50189 -64.80412,29.46619 -14.02188,9.25975 -20.10028,26.22879 -26.80993,40.84136 -10.29734,22.4262 -20.83809,44.63565 -30.51689,67.3564 -5.22508,12.26576 -13.39467,27.36077 -8.77993,40.99955 5.63935,16.66715 22.04983,18.46773 36.82024,15.44829 31.47442,-6.43406 64.07471,-17.81978 93.71326,-30.10796 12.35375,-5.12191 27.0258,-10.05846 32.21393,-23.41134 m 84.92763,-45.39236 h 1.46427 l 21.96405,48.3209 c -18.97984,-0.81481 -38.60591,-5.48376 -57.10652,-9.62955 -7.53504,-1.68851 -17.2193,-2.75811 -21.9719,-9.56521 -8.80975,-12.61815 -10.40666,-33.43993 -14.08798,-48.16164 -1.67742,-6.70817 -2.54736,-16.42342 -10.82383,-17.79949 -13.12176,-2.18165 -15.92294,7.21446 -18.78696,17.79949 -3.86565,14.287 -5.38582,39.91994 -16.90466,50.29924 -17.46112,15.73374 -55.23112,12.88153 -77.03005,18.52143 l 23.42831,-49.78517 h 1.46427 l 8.78562,33.6782 c 12.69804,-4.29994 31.58063,-2.97251 38.92513,-16.11375 9.03684,-16.16917 6.64172,-56.62319 25.52418,-64.40302 42.65463,-17.57435 32.38222,50.24839 48.91289,68.47382 5.25435,5.79309 30.83412,14.78739 37.29938,8.39927 7.14261,-7.05734 7.7631,-20.69971 8.9438,-30.03452 m -147.89123,89.32045 c -0.0148,22.43888 -9.16254,41.15854 -17.55542,61.49932 -3.77336,9.14508 -6.48634,20.27027 -13.50605,27.55104 -10.29253,10.6753 -26.44386,16.40673 -39.22347,23.495 -23.11676,12.82183 -45.36532,26.5422 -67.3564,41.20295 -18.2274,12.15163 -59.73682,32.33334 -63.94543,55.64224 -5.94515,32.92677 21.44403,43.01418 47.83847,46.44427 31.66786,4.11522 63.44768,7.0223 95.17752,10.41934 18.16444,1.94472 42.03488,2.09791 58.56515,10.49279 16.11425,8.18361 24.20067,32.53084 30.45701,48.3209 2.24364,5.66261 4.89562,17.90835 13.26543,16.71935 7.65131,-1.08694 4.66298,-20.08268 4.59845,-25.50497 -0.26564,-22.33118 -0.93107,-44.95122 -1.48008,-67.3564 -0.18236,-7.44299 -0.59843,-19.17671 -10.23523,-19.91117 -8.85233,-0.67457 -17.3378,5.217 -26.35006,4.88319 -23.23389,-0.86047 -51.5512,-13.50204 -73.21348,-21.57876 27.72978,-10.46152 56.59932,-15.52631 83.46337,-28.92379 7.03521,-3.50857 21.16886,-14.26232 28.87753,-8.25806 6.19657,4.82653 4.41459,14.26313 5.21875,21.07488 2.55818,21.66885 3.97473,44.06349 3.97473,65.89214 0,72.11581 2.92854,144.41574 2.92854,216.71189 0,16.77154 1.74694,34.66058 -0.86432,51.24944 -1.24682,7.92121 -7.20106,20.09975 -3.24492,27.7364 2.51351,4.85183 7.80593,6.57885 12.89485,7.15073 12.51351,1.40618 41.33005,2.33986 52.49681,-3.62903 5.80265,-3.10165 4.29663,-9.17305 1.04735,-13.68687 -8.014,-11.13269 -18.57489,-19.63777 -21.798,-33.6782 -3.67953,-16.02884 2.64434,-34.15839 6.0175,-49.78516 6.42513,-29.76513 13.01907,-59.04874 16.64141,-89.32045 12.42798,-103.86117 60.54921,-210.46846 19.39362,-313.35369 -4.99267,-12.48132 -11.70093,-24.97373 -14.87766,-38.07101 -1.4472,-5.96674 0.15739,-16.26587 -3.31944,-21.21725 -3.07557,-4.38002 -11.33737,-5.45704 -16.06631,-7.22528 -13.49632,-5.04647 -31.52827,-17.88375 -45.39235,-19.4795 -5.825,-0.67046 -13.75488,5.83903 -19.03551,8.18227 -14.23489,6.31655 -29.89473,14.02272 -45.39236,16.31145 z"
       id="path14" /></g></svg>
